<svg xmlns="http://www.w3.org/2000/svg" width="1200" height="760" viewBox="0 0 1200 760" role="img" aria-labelledby="title description">
  <title id="title">Publication pipeline dashboard</title>
  <desc id="description">8 papers: 3 accepted, 2 submitted, and 3 planned. The next planned deadline is CVPR.</desc>
  <defs>
    <linearGradient id="background" x1="0" y1="0" x2="1" y2="1">
      <stop offset="0" stop-color="#0A1222"/>
      <stop offset="1" stop-color="#0D1729"/>
    </linearGradient>
    <radialGradient id="glow" cx="0" cy="0" r="1" gradientTransform="translate(1020 40) rotate(135) scale(430)">
      <stop stop-color="#2563EB" stop-opacity=".22"/>
      <stop offset="1" stop-color="#2563EB" stop-opacity="0"/>
    </radialGradient>
    <pattern id="grid" width="32" height="32" patternUnits="userSpaceOnUse">
      <path d="M32 0H0V32" fill="none" stroke="#8BA3C7" stroke-opacity=".035"/>
    </pattern>
    <style>
      text { font-family: Inter, ui-sans-serif, -apple-system, BlinkMacSystemFont, "Segoe UI", sans-serif; }
      .eyebrow { fill:#7DD3FC; font-size:12px; font-weight:700; letter-spacing:2px; }
      .title { fill:#F8FAFC; font-size:38px; font-weight:720; letter-spacing:-1px; }
      .subtitle { fill:#94A3B8; font-size:15px; }
      .label { fill:#94A3B8; font-size:11px; font-weight:700; letter-spacing:1.3px; }
      .metric { fill:#F8FAFC; font-size:48px; font-weight:750; font-variant-numeric:tabular-nums; }
      .muted { fill:#718096; font-size:12px; }
      .section { fill:#E2E8F0; font-size:17px; font-weight:700; }
      .row-title { fill:#CBD5E1; font-size:14px; font-weight:700; }
      .row-paper { fill:#F8FAFC; font-size:15px; font-weight:650; }
      .row-meta { fill:#718096; font-size:11px; }
      .pill { font-size:10px; font-weight:750; letter-spacing:.7px; }
      .next-venue { fill:#F8FAFC; font-size:32px; font-weight:760; }
      .next-paper { fill:#CBD5E1; font-size:16px; font-weight:600; }
      .date { fill:#F8FAFC; font-size:18px; font-weight:700; font-variant-numeric:tabular-nums; }
      .legend { fill:#94A3B8; font-size:11px; }
      .legend-value { fill:#E2E8F0; font-size:12px; font-weight:700; }
      .footer { fill:#64748B; font-size:11px; }
    </style>
  </defs>
  <rect width="1200" height="760" rx="28" fill="url(#background)"/>
  <rect width="1200" height="760" rx="28" fill="url(#glow)"/>
  <rect width="1200" height="760" rx="28" fill="url(#grid)"/>
  <rect x="48" y="44" width="48" height="48" rx="14" fill="#172554" stroke="#3B82F6" stroke-opacity=".7"/>
  <path d="M61 77V67l8-8 7 7 8-10" fill="none" stroke="#7DD3FC" stroke-width="3" stroke-linecap="round" stroke-linejoin="round"/>
  <circle cx="61" cy="77" r="2.5" fill="#7DD3FC"/><circle cx="69" cy="59" r="2.5" fill="#7DD3FC"/><circle cx="76" cy="66" r="2.5" fill="#7DD3FC"/><circle cx="84" cy="56" r="2.5" fill="#7DD3FC"/>
  <text x="116" y="59" class="eyebrow">RESEARCH OPERATIONS</text>
  <text x="116" y="91" class="title">Publication pipeline</text>
  <text x="116" y="119" class="subtitle">2026–2027 portfolio · synchronized from Excel · updated Sep 27, 2026</text>
  <rect x="1011" y="56" width="141" height="34" rx="17" fill="#0D2B25" stroke="#1D6B58"/>
  <circle cx="1031" cy="73" r="5" fill="#34D399"/>
  <text x="1044" y="77" class="pill" fill="#6EE7B7">TRACKER ACTIVE</text>
  
        <g>
          <rect x="48" y="154" width="252" height="132" rx="18" fill="#111C2F" stroke="#26344C"/>
          <rect x="48" y="154" width="5" height="132" rx="2.5" fill="#E2E8F0"/>
          <text x="72" y="187" class="label">TOTAL PAPERS</text>
          <text x="72" y="242" class="metric">8</text>
          <text x="130" y="239" class="muted">Across all publication cycles</text>
        </g>
        <g>
          <rect x="324" y="154" width="252" height="132" rx="18" fill="#111C2F" stroke="#26344C"/>
          <rect x="324" y="154" width="5" height="132" rx="2.5" fill="#34D399"/>
          <text x="348" y="187" class="label">ACCEPTED</text>
          <text x="348" y="242" class="metric">3</text>
          <text x="406" y="239" class="muted">Published or camera-ready</text>
        </g>
        <g>
          <rect x="600" y="154" width="252" height="132" rx="18" fill="#111C2F" stroke="#26344C"/>
          <rect x="600" y="154" width="5" height="132" rx="2.5" fill="#60A5FA"/>
          <text x="624" y="187" class="label">SUBMITTED</text>
          <text x="624" y="242" class="metric">2</text>
          <text x="682" y="239" class="muted">Awaiting the review cycle</text>
        </g>
        <g>
          <rect x="876" y="154" width="252" height="132" rx="18" fill="#111C2F" stroke="#26344C"/>
          <rect x="876" y="154" width="5" height="132" rx="2.5" fill="#F59E0B"/>
          <text x="900" y="187" class="label">PLANNED</text>
          <text x="900" y="242" class="metric">3</text>
          <text x="958" y="239" class="muted">In the writing pipeline</text>
        </g>
  <rect x="48" y="318" width="720" height="394" rx="20" fill="#101A2C" stroke="#26344C"/>
  <text x="72" y="357" class="section">Active pipeline</text>
  <text x="740" y="357" text-anchor="end" class="muted">5 papers in motion</text>
  
        <g>
          <line x1="72" y1="439" x2="740" y2="439" stroke="#223048"/>
          <circle cx="80" cy="414" r="5" fill="#60A5FA"/>
          <text x="98" y="411" class="row-title">ICLR</text>
          <text x="178" y="411" class="row-paper">LongMOE</text>
          <text x="178" y="431" class="row-meta">Sep 25 deadline</text>
          <rect x="618" y="399" width="112" height="28" rx="14" fill="#102A56" stroke="#60A5FA" stroke-opacity=".45"/>
          <text x="674" y="418" text-anchor="middle" class="pill" fill="#60A5FA">SUBMITTED</text>
        </g>
        <g>
          <line x1="72" y1="496" x2="740" y2="496" stroke="#223048"/>
          <circle cx="80" cy="471" r="5" fill="#60A5FA"/>
          <text x="98" y="468" class="row-title">ICLR</text>
          <text x="178" y="468" class="row-paper">CAMOS</text>
          <text x="178" y="488" class="row-meta">Sep 25 deadline</text>
          <rect x="618" y="456" width="112" height="28" rx="14" fill="#102A56" stroke="#60A5FA" stroke-opacity=".45"/>
          <text x="674" y="475" text-anchor="middle" class="pill" fill="#60A5FA">SUBMITTED</text>
        </g>
        <g>
          <line x1="72" y1="553" x2="740" y2="553" stroke="#223048"/>
          <circle cx="80" cy="528" r="5" fill="#F59E0B"/>
          <text x="98" y="525" class="row-title">CVPR</text>
          <text x="178" y="525" class="row-paper">Segmentation</text>
          <text x="178" y="545" class="row-meta">Nov 13 deadline  ·  Oct target</text>
          <rect x="618" y="513" width="112" height="28" rx="14" fill="#432607" stroke="#F59E0B" stroke-opacity=".45"/>
          <text x="674" y="532" text-anchor="middle" class="pill" fill="#F59E0B">PLANNED</text>
        </g>
        <g>
          <line x1="72" y1="610" x2="740" y2="610" stroke="#223048"/>
          <circle cx="80" cy="585" r="5" fill="#F59E0B"/>
          <text x="98" y="582" class="row-title">Nature</text>
          <text x="178" y="582" class="row-paper">INCLAIR</text>
          <text x="178" y="602" class="row-meta">Dec 20 deadline  ·  Nov target</text>
          <rect x="618" y="570" width="112" height="28" rx="14" fill="#432607" stroke="#F59E0B" stroke-opacity=".45"/>
          <text x="674" y="589" text-anchor="middle" class="pill" fill="#F59E0B">PLANNED</text>
        </g>
        <g>
          <line x1="72" y1="667" x2="740" y2="667" stroke="#223048"/>
          <circle cx="80" cy="642" r="5" fill="#F59E0B"/>
          <text x="98" y="639" class="row-title">ACL</text>
          <text x="178" y="639" class="row-paper">MedLLM</text>
          <text x="178" y="659" class="row-meta">Jan 28 deadline  ·  Dec target</text>
          <rect x="618" y="627" width="112" height="28" rx="14" fill="#432607" stroke="#F59E0B" stroke-opacity=".45"/>
          <text x="674" y="646" text-anchor="middle" class="pill" fill="#F59E0B">PLANNED</text>
        </g>
  <rect x="792" y="318" width="360" height="220" rx="20" fill="#101A2C" stroke="#26344C"/>
  
          <text x="824" y="383" class="label">NEXT DEADLINE</text>
          <text x="824" y="428" class="next-venue">CVPR</text>
          <text x="824" y="457" class="next-paper">Segmentation</text>
          <text x="824" y="503" class="date">Nov 13, 2026</text>
          <rect x="1000" y="477" width="128" height="32" rx="16" fill="#432607" stroke="#B76808"/>
          <text x="1064" y="498" text-anchor="middle" class="pill" fill="#FBBF24">47 DAYS LEFT</text>
  <rect x="792" y="558" width="360" height="154" rx="20" fill="#101A2C" stroke="#26344C"/>
  <text x="824" y="593" class="section">Portfolio mix</text>
  <rect x="824" y="614" width="288" height="12" rx="6" fill="#1E293B"/>
  <rect x="824" y="614" width="108" height="12" rx="6" fill="#34D399"/>
  <rect x="932" y="614" width="72" height="12" fill="#60A5FA"/>
  <rect x="1004" y="614" width="108" height="12" rx="6" fill="#F59E0B"/>
  <circle cx="830" cy="654" r="4" fill="#34D399"/><text x="842" y="658" class="legend">Accepted</text><text x="900" y="658" class="legend-value">3</text>
  <circle cx="941" cy="654" r="4" fill="#60A5FA"/><text x="953" y="658" class="legend">Submitted</text><text x="1021" y="658" class="legend-value">2</text>
  <circle cx="1061" cy="654" r="4" fill="#F59E0B"/><text x="1073" y="658" class="legend">Planned</text><text x="1124" y="658" class="legend-value">3</text>
  <text x="824" y="688" class="footer">Accepted: DiGAN  ·  MARVIN  ·  STT-LLM</text>
</svg>
